<?xml version="1.0" standalone="no"?><!DOCTYPE svg PUBLIC "-//W3C//DTD SVG 1.1//EN" "http://www.w3.org/Graphics/SVG/1.1/DTD/svg11.dtd"><svg t="1612629062513" class="icon" viewBox="0 0 1024 1024" version="1.1" xmlns="http://www.w3.org/2000/svg" p-id="2986" xmlns:xlink="http://www.w3.org/1999/xlink" width="32" height="32"><defs><style type="text/css"></style></defs><path d="M906.666667 619.434667c16.064 0 30.229333 13.226667 31.850666 29.013333l0.149334 2.986667v213.333333c0 39.168-31.893333 72.384-70.634667 74.538667l-4.032 0.128h-704c-39.189333 0-72.384-31.893333-74.56-70.634667L85.333333 864.746667v-213.333334c0-17.066667 14.933333-32 32-32 16.064 0 30.229333 13.226667 31.850667 29.013334l0.149333 2.986666v213.333334c0 5.696 3.370667 9.706667 8.618667 10.517333l2.048 0.170667h704c5.696 0 9.685333-3.370667 10.517333-8.618667l0.149334-2.048v-213.333333c0-17.066667 14.933333-32 32-32zM512 75.434667a32 32 0 0 1 32 32v514.261333l216.896-216.896a32 32 0 0 1 47.466667 42.816l-2.197334 2.432L564.8 691.413333a74.666667 74.666667 0 0 1-102.4 3.008l-3.2-2.986666-241.365333-241.386667a32 32 0 0 1 42.837333-47.445333l2.432 2.197333L480 621.717333V107.434667a32 32 0 0 1 32-32z" p-id="2987" fill="#909090"></path></svg>