<?xml version="1.0" standalone="no"?><!DOCTYPE svg PUBLIC "-//W3C//DTD SVG 1.1//EN" "http://www.w3.org/Graphics/SVG/1.1/DTD/svg11.dtd"><svg t="1612696465300" class="icon" viewBox="0 0 1024 1024" version="1.1" xmlns="http://www.w3.org/2000/svg" p-id="17204" xmlns:xlink="http://www.w3.org/1999/xlink" width="16" height="16"><defs><style type="text/css"></style></defs><path d="M1005.381818 488.727273c-4.654545-9.309091-93.090909-116.363636-218.763636-195.490909l23.272727-23.272728c13.963636-13.963636 13.963636-41.890909-4.654545-55.854545-13.963636-13.963636-37.236364-13.963636-51.2 0l-37.236364 41.890909c-60.509091-27.927273-130.327273-51.2-204.8-51.2-269.963636 0-484.072727 274.618182-493.381818 283.927273-9.309091 13.963636-9.309091 32.581818 0 46.545454 4.654545 9.309091 93.090909 116.363636 223.418182 200.145455l-23.272728 23.272727c-13.963636 13.963636-13.963636 37.236364 0 51.2 13.963636 13.963636 37.236364 13.963636 51.2 0l37.236364-37.236364c60.509091 27.927273 130.327273 46.545455 204.8 46.545455 269.963636 0 484.072727-274.618182 493.381818-283.927273 13.963636-13.963636 13.963636-32.581818 0-46.545454zM93.090909 512c55.854545-60.509091 223.418182-232.727273 418.909091-232.727273 51.2 0 102.4 13.963636 148.945455 32.581818l-60.509091 65.163637c-23.272727-13.963636-55.854545-23.272727-83.781819-23.272727-88.436364 0-162.909091 74.472727-162.90909 162.90909 0 32.581818 9.309091 60.509091 27.927272 88.436364l-79.127272 79.127273c-102.4-60.509091-172.218182-134.981818-209.454546-172.218182z m507.345455 0c0 46.545455-41.890909 88.436364-88.436364 88.436364-9.309091 0-18.618182 0-27.927273-4.654546l111.709091-111.709091c4.654545 9.309091 4.654545 18.618182 4.654546 27.927273z m-176.872728 0c0-46.545455 41.890909-88.436364 88.436364-88.436364 9.309091 0 18.618182 4.654545 27.927273 4.654546l-111.709091 111.709091c0-4.654545-4.654545-18.618182-4.654546-27.927273z m88.436364 232.727273c-51.2 0-97.745455-13.963636-144.290909-32.581818l65.163636-65.163637c23.272727 13.963636 51.2 23.272727 83.781818 23.272727 88.436364 0 162.909091-74.472727 162.909091-162.90909 0-27.927273-9.309091-60.509091-23.272727-83.781819l83.781818-83.781818c93.090909 55.854545 162.909091 125.672727 195.490909 162.909091-60.509091 69.818182-232.727273 242.036364-423.563636 242.036364z" p-id="17205" fill="#c0c0c0"></path></svg>