<?xml version="1.0" standalone="no"?><!DOCTYPE svg PUBLIC "-//W3C//DTD SVG 1.1//EN" "http://www.w3.org/Graphics/SVG/1.1/DTD/svg11.dtd"><svg t="1612553557733" class="icon" viewBox="0 0 1024 1024" version="1.1" xmlns="http://www.w3.org/2000/svg" p-id="8143" xmlns:xlink="http://www.w3.org/1999/xlink" width="32" height="32"><defs><style type="text/css"></style></defs><path d="M789.62688 234.37312c119.97184 119.97184 119.97184 314.4704 0 434.44224-112.64 112.64-290.95936 119.52128-411.648 20.66432l-44.52352 44.50304 72.41728 72.3968a30.72 30.72 0 0 1-43.43808 43.45856L289.9968 777.4208l-94.12608 94.12608a30.72 30.72 0 0 1-43.43808-43.43808l94.12608-94.12608-72.41728-72.41728a30.72 30.72 0 0 1 43.45856-43.43808l72.3968 72.41728 44.52352-44.52352c-98.87744-120.66816-91.99616-299.008 20.64384-411.648 119.97184-119.97184 314.4704-119.97184 434.44224 0z m-43.43808 43.43808c-95.96928-95.96928-251.57632-95.96928-347.5456 0-95.98976 95.96928-95.98976 251.57632 0 347.5456 95.96928 95.98976 251.57632 95.98976 347.5456 0 95.96928-95.96928 95.96928-251.57632 0-347.5456z" fill="#fd7398" p-id="8144"></path></svg>