<?xml version="1.0" standalone="no"?><!DOCTYPE svg PUBLIC "-//W3C//DTD SVG 1.1//EN" "http://www.w3.org/Graphics/SVG/1.1/DTD/svg11.dtd"><svg t="1612679983421" class="icon" viewBox="0 0 1024 1024" version="1.1" xmlns="http://www.w3.org/2000/svg" p-id="9219" xmlns:xlink="http://www.w3.org/1999/xlink" width="32" height="32"><defs><style type="text/css"></style></defs><path d="M861.090909 930.909091l-698.181818 0C98.629818 930.909091 46.545455 878.824727 46.545455 814.545455L46.545455 325.818182c0-64.279273 52.084364-116.363636 116.363636-116.363636l64 0C285.090909 139.636364 349.090909 69.818182 372.363636 69.818182c46.498909 0 231.051636 0 279.272727 0 24.110545 0 82.292364 69.818182 134.469818 139.636364L861.090909 209.454545C925.370182 209.454545 977.454545 261.538909 977.454545 325.818182l0 488.727273C977.454545 878.824727 925.370182 930.909091 861.090909 930.909091z" p-id="9220" data-spm-anchor-id="a313x.7781069.0.i9" class="selected" fill="#fa7298"></path><path d="M512 574.464m-213.597091 0a4.589 4.589 0 1 0 427.194182 0 4.589 4.589 0 1 0-427.194182 0Z" p-id="9221" data-spm-anchor-id="a313x.7781069.0.i8" class="" fill="#ffffff"></path></svg>