<?xml version="1.0" standalone="no"?><!DOCTYPE svg PUBLIC "-//W3C//DTD SVG 1.1//EN" "http://www.w3.org/Graphics/SVG/1.1/DTD/svg11.dtd"><svg t="1612802834919" class="icon" viewBox="0 0 1024 1024" version="1.1" xmlns="http://www.w3.org/2000/svg" p-id="6716" xmlns:xlink="http://www.w3.org/1999/xlink" width="16" height="16"><defs><style type="text/css"></style></defs><path d="M284 791.6c-27.9 0-55-10.2-76.7-29.6-31.3-27.9-44.9-69.1-36.4-110.2L211.4 457c7.6-37.9 28.3-72.3 58.2-96.8 29.9-24.5 67.8-38 106.5-38h84.4c15.4 0 28-12.6 28-28v-41.5c0-11 9-20 20-20s20 9 20 20v41.5c0 37.5-30.5 68-68 68h-84.4c-60.8 0-113.5 43.2-125.5 102.8v0.1L210 660c-5.6 26.9 3.3 53.9 23.8 72.2 20.5 18.3 48.4 24.1 74.5 15.4l92.9-30.7C437 705 474.4 699 512.2 699s75.1 6 111 17.9l92.9 30.7c26.1 8.6 53.9 2.9 74.5-15.4 20.5-18.3 29.4-45.3 23.8-72.2l-40.6-195c-12-59.6-64.7-102.8-125.5-102.8h-62.6c-11 0-20-9-20-20s9-20 20-20h62.6c38.7 0 76.5 13.5 106.5 38 29.9 24.5 50.6 58.9 58.2 96.8l40.5 194.8c8.6 41.1-5 82.3-36.4 110.2-31.3 27.9-73.8 36.7-113.6 23.5l-92.9-30.7c-63.5-21-133.4-21-196.8 0l-92.9 30.7c-12.2 4.1-24.7 6.1-36.9 6.1z" p-id="6717" fill="#878787"></path><path d="M431.6 507.6h-35v-35c0-11-9-20-20-20s-20 9-20 20v35h-35c-11 0-20 9-20 20s9 20 20 20h35v35c0 11 9 20 20 20s20-9 20-20v-35h35c11 0 20-9 20-20s-9-20-20-20z" p-id="6718" fill="#878787"></path><path d="M648.2 473m-20 0a20 20 0 1 0 40 0 20 20 0 1 0-40 0Z" p-id="6719" fill="#878787"></path><path d="M647.7 582.6m-20 0a20 20 0 1 0 40 0 20 20 0 1 0-40 0Z" p-id="6720" fill="#878787"></path><path d="M702.7 528m-20 0a20 20 0 1 0 40 0 20 20 0 1 0-40 0Z" p-id="6721" fill="#878787"></path><path d="M593.2 527.6m-20 0a20 20 0 1 0 40 0 20 20 0 1 0-40 0Z" p-id="6722" fill="#878787"></path></svg>