<?xml version="1.0" standalone="no"?><!DOCTYPE svg PUBLIC "-//W3C//DTD SVG 1.1//EN" "http://www.w3.org/Graphics/SVG/1.1/DTD/svg11.dtd"><svg t="1612680344747" class="icon" viewBox="0 0 1024 1024" version="1.1" xmlns="http://www.w3.org/2000/svg" p-id="13999" xmlns:xlink="http://www.w3.org/1999/xlink" width="16" height="16"><defs><style type="text/css"></style></defs><path d="M0 0m102.4 0l819.0976 0q102.4 0 102.4 102.4l0 819.0976q0 102.4-102.4 102.4l-819.0976 0q-102.4 0-102.4-102.4l0-819.0976q0-102.4 102.4-102.4Z" fill="#eb6876" opacity=".6" p-id="14000"></path><path d="M742.8352 616.7808l-71.3216-76.5696a22.0672 22.0672 0 0 0-30.5664-2.1248l-2.2528 2.1248a27.3152 27.3152 0 0 0 0 36.0192l31.744 34.8672h-29.696c-12.416 0-30.208-12.7488-49.7664-30.336l-9.1648-8.4224-9.344-8.96-9.4208-9.2672-4.736-4.736a22.0416 22.0416 0 0 0-30.6176-1.4848l-2.2016 2.176c-8.8832 10.24-8.3968 26.24 1.0752 35.84l12.1856 12.0832c41.4464 40.5504 71.2448 62.8992 101.8112 62.8992h29.696l-31.744 32.9728a25.5488 25.5488 0 0 0-2.304 31.7952l2.304 2.816c3.6608 3.84 8.3712 6.272 13.3888 6.912l3.0464 0.1792a22.4512 22.4512 0 0 0 16.5632-7.2192l71.3216-76.3648c8.32-8.9088 9.0112-22.8864 2.0992-32.64l-2.0992-2.56z m-73.7792-323.2512l2.2272 2.0992 71.3216 76.416c8.2944 8.832 9.0112 22.7328 2.1504 32.4608l-2.1504 2.6112-71.3216 76.3904a22.4512 22.4512 0 0 1-13.3632 6.912l-3.0464 0.2048a22.4 22.4 0 0 1-14.1056-5.3248l-2.304-2.176a26.7776 26.7776 0 0 1 0-35.584l31.744-34.8928-29.6448-0.1792c-11.392 0-30.72 14.1056-52.6336 33.8432l-9.5232 8.7808-9.728 9.3184-9.9072 9.728-14.848 14.976-64.4096 66.6112-12.288 12.5184-12.1856 12.1088-12.032 11.648c-41.856 39.7568-80.768 68.8384-114.176 68.8384h-31.4112c-12.8 0-23.168-11.1104-23.168-24.832 0-13.696 10.368-24.832 23.168-24.832h31.3344c13.4912 0 32.8192-12.1856 54.528-30.3616l10.2144-8.7808 10.4448-9.472 5.3248-4.992 10.7264-10.3168 16.2304-16.1024 26.7776-27.4432 33.792-34.9696 23.552-24.1152 11.4688-11.3664 11.1872-10.8544 5.504-5.1712 10.8288-9.856c30.2848-26.88 57.5232-44.5696 81.152-44.5696h29.7216l-31.744-32.9728a24.8832 24.8832 0 0 1-0.6656-33.4592l0.6656-0.7424a22.0672 22.0672 0 0 1 30.592-2.0992z m-340.224 69.2992c32.9216 0 65.8176 22.8352 103.68 57.8048l11.52 10.8288 5.8624 5.6832c8.6784 8.7552 9.984 22.8352 3.4816 33.1776l-1.9456 2.7392-1.9968 2.048a21.9904 21.9904 0 0 1-15.1552 5.8112 22.784 22.784 0 0 1-15.5904-6.912l-13.5168-12.928-9.3696-8.6272c-22.0672-19.84-45.3888-37.4784-63.3088-39.7568l-3.7376-0.256h-31.3344c-12.8 0-23.168-11.0848-23.168-24.8064 0-12.7232 8.96-23.2192 20.48-24.6528l2.688-0.1536h31.3856z" fill="#ffffff" p-id="14001" data-spm-anchor-id="a313x.7781069.0.i25" class="selected"></path></svg>